<?xml version="1.0" encoding="UTF-8"?>
<svg width="120" height="120" viewBox="0 0 120 120" fill="none" xmlns="http://www.w3.org/2000/svg">
  <circle cx="60" cy="60" r="55" fill="url(#disco-gradient)" stroke="#0284C7" stroke-width="2"/>
  <path d="M40 45C40 42.2386 42.2386 40 45 40H75C77.7614 40 80 42.2386 80 45V75C80 77.7614 77.7614 80 75 80H45C42.2386 80 40 77.7614 40 75V45Z" fill="white"/>
  <path d="M60 70C65.5228 70 70 65.5228 70 60C70 54.4772 65.5228 50 60 50C54.4772 50 50 54.4772 50 60C50 65.5228 54.4772 70 60 70Z" fill="#0284C7"/>
  <defs>
    <linearGradient id="disco-gradient" x1="0" y1="0" x2="120" y2="120" gradientUnits="userSpaceOnUse">
      <stop offset="0%" stop-color="#38BDF8"/>
      <stop offset="100%" stop-color="#0284C7"/>
    </linearGradient>
  </defs>
</svg>
