<?xml version="1.0" encoding="UTF-8"?>
<svg width="48" height="48" viewBox="0 0 48 48" fill="none" xmlns="http://www.w3.org/2000/svg">
  <g filter="url(#filter0_d)">
    <circle cx="24" cy="22" r="20" fill="white"/>
    <circle cx="24" cy="22" r="19" fill="#FF4B91"/>
    <path d="M24 12C19.13 12 15 16.13 15 21C15 27.75 24 35 24 35C24 35 33 27.75 33 21C33 16.13 28.87 12 24 12ZM24 24.5C22.07 24.5 20.5 22.93 20.5 21C20.5 19.07 22.07 17.5 24 17.5C25.93 17.5 27.5 19.07 27.5 21C27.5 22.93 25.93 24.5 24 24.5Z" fill="white"/>
    <circle cx="24" cy="22" r="19" stroke="#FF4B91" stroke-width="2" stroke-dasharray="4 4">
      <animateTransform
        attributeName="transform"
        type="rotate"
        from="0 24 22"
        to="360 24 22"
        dur="10s"
        repeatCount="indefinite"
      />
    </circle>
  </g>
  <defs>
    <filter id="filter0_d" x="0" y="0" width="48" height="48" filterUnits="userSpaceOnUse" color-interpolation-filters="sRGB">
      <feFlood flood-opacity="0" result="BackgroundImageFix"/>
      <feColorMatrix in="SourceAlpha" type="matrix" values="0 0 0 0 0 0 0 0 0 0 0 0 0 0 0 0 0 0 127 0"/>
      <feOffset dy="2"/>
      <feGaussianBlur stdDeviation="2"/>
      <feColorMatrix type="matrix" values="0 0 0 0 0 0 0 0 0 0 0 0 0 0 0 0 0 0 0.25 0"/>
      <feBlend mode="normal" in2="BackgroundImageFix" result="effect1_dropShadow"/>
      <feBlend mode="normal" in="SourceGraphic" in2="effect1_dropShadow" result="shape"/>
    </filter>
  </defs>
</svg>
