<?xml version="1.0" encoding="UTF-8"?>
<svg width="40" height="40" viewBox="0 0 40 40" fill="none" xmlns="http://www.w3.org/2000/svg">
  <g filter="url(#filter0_d)">
    <circle cx="20" cy="18" r="16" fill="white"/>
    <circle cx="20" cy="18" r="15" fill="#FF4B91"/>
    <path d="M20 10C16.13 10 13 13.13 13 17C13 22.25 20 28 20 28C20 28 27 22.25 27 17C27 13.13 23.87 10 20 10ZM20 19.5C18.62 19.5 17.5 18.38 17.5 17C17.5 15.62 18.62 14.5 20 14.5C21.38 14.5 22.5 15.62 22.5 17C22.5 18.38 21.38 19.5 20 19.5Z" fill="white"/>
  </g>
  <defs>
    <filter id="filter0_d" x="0" y="0" width="40" height="40" filterUnits="userSpaceOnUse" color-interpolation-filters="sRGB">
      <feFlood flood-opacity="0" result="BackgroundImageFix"/>
      <feColorMatrix in="SourceAlpha" type="matrix" values="0 0 0 0 0 0 0 0 0 0 0 0 0 0 0 0 0 0 127 0"/>
      <feOffset dy="2"/>
      <feGaussianBlur stdDeviation="2"/>
      <feColorMatrix type="matrix" values="0 0 0 0 0 0 0 0 0 0 0 0 0 0 0 0 0 0 0.25 0"/>
      <feBlend mode="normal" in2="BackgroundImageFix" result="effect1_dropShadow"/>
      <feBlend mode="normal" in="SourceGraphic" in2="effect1_dropShadow" result="shape"/>
    </filter>
  </defs>
</svg>
